<svg width="267" height="84" viewBox="0 0 267 84" fill="none" xmlns="http://www.w3.org/2000/svg">
<path d="M15.7739 0H16.0278C16.1125 0 16.2288 0.116374 16.377 0.349121V25.3589C16.6097 25.6128 16.7261 25.8455 16.7261 26.0571V26.311C16.7261 26.5226 16.6097 26.7554 16.377 27.0093V27.6123H16.7261C24.1528 27.6123 29.1463 30.1937 31.7065 35.3564C32.3413 37.0068 32.6587 38.2129 32.6587 38.9746V39.0698C32.6587 40.1066 32.0874 40.625 30.9448 40.625H25.7715C24.6077 40.5404 24.0259 40.0749 24.0259 39.2285C23.3276 37.3242 22.4707 36.1499 21.4551 35.7056C20.2913 34.9015 18.5986 34.4995 16.377 34.4995H15.6787C12.8857 34.4995 11.0449 35.6421 10.1562 37.9272C10.0505 38.4562 9.99756 38.8371 9.99756 39.0698V39.5776C9.99756 41.4185 12.1769 42.8255 16.5356 43.7988C17.0435 44.0316 19.6037 44.6875 24.2163 45.7666C26.5438 46.4014 28.4904 47.3853 30.0562 48.7183C32.7645 50.8341 34.1187 53.6165 34.1187 57.0654C34.1187 62.0801 31.7065 65.7829 26.8823 68.1738C24.2375 69.4434 20.9896 70.0781 17.1387 70.0781C13.9014 70.0781 10.7487 69.4222 7.68066 68.1104C6.17839 67.4756 4.50684 66.2061 2.66602 64.3018C1.1849 62.2917 0.296224 59.9959 0 57.4146V56.9067C0 56.1873 0.571289 55.7853 1.71387 55.7007H7.07764C8.05094 55.7007 8.62223 56.4201 8.7915 57.8589C9.53206 59.869 10.7064 61.276 12.3145 62.0801C14.1341 62.8841 15.9432 63.2861 17.7417 63.2861C20.1326 63.2861 22.2909 62.5879 24.2163 61.1914C25.0838 59.9642 25.5176 58.9591 25.5176 58.1763C25.5176 55.4256 22.64 53.479 16.8848 52.3364C12.4837 51.2785 9.03483 50.1253 6.53809 48.877C3.04688 46.7399 1.30127 43.6401 1.30127 39.5776C1.30127 36.2134 2.8776 33.2511 6.03027 30.6909C7.65951 29.3791 9.78597 28.4904 12.4097 28.0249C12.4097 27.9614 13.383 27.8239 15.3296 27.6123C15.3296 27.6546 15.3613 27.6758 15.4248 27.6758V27.168C14.9805 27.168 14.716 26.8294 14.6313 26.1523C14.7583 25.5599 14.9593 25.2637 15.2344 25.2637C15.2344 24.0576 14.7795 22.9679 13.8696 21.9946C13.785 22.2274 13.584 22.3438 13.2666 22.3438H12.7588C12.2933 22.0898 12.0605 21.7725 12.0605 21.3916V21.2329C12.0605 20.7463 12.3779 20.4289 13.0127 20.2808H13.1714C13.7004 20.2808 14.0495 20.651 14.2188 21.3916C14.5361 21.3916 14.9064 21.8783 15.3296 22.8516H15.4248V0.349121C15.4248 0.264486 15.5412 0.148112 15.7739 0ZM14.4727 30.8813C14.4727 31.7065 14.991 32.1932 16.0278 32.3413C16.8953 32.1509 17.3291 31.6325 17.3291 30.7861C17.0964 29.9821 16.779 29.5801 16.377 29.5801V30.0244C16.377 30.109 16.2606 30.2254 16.0278 30.3735H15.7739C15.6893 30.3735 15.5729 30.2572 15.4248 30.0244V29.5801H15.3296C14.7583 29.8975 14.4727 30.3312 14.4727 30.8813ZM54.812 0.444336H55.0342C55.0977 0.444336 55.1929 0.539551 55.3198 0.72998V39.0381H55.415C55.415 38.7419 55.7324 38.3081 56.3672 37.7368C56.5153 37.1444 56.8221 36.8481 57.2876 36.8481H57.3511C57.8589 36.8481 58.1657 37.1761 58.2715 37.832C58.1022 38.3822 57.8271 38.6572 57.4463 38.6572H57.1924C57.0231 38.6572 56.8327 38.5514 56.6211 38.3398C55.8594 39.1862 55.4785 40.0643 55.4785 40.9741V41.1328C55.7747 41.429 55.9229 41.6829 55.9229 41.8945V42.1167C55.9229 42.4552 55.7218 42.7091 55.3198 42.8784L56.5259 42.4976H56.8433C57.4357 42.4976 57.9118 43.3228 58.2715 44.9731C62.5879 58.5571 64.7461 65.529 64.7461 65.8887V66.0474C64.7461 66.6821 63.6882 67.2323 61.5723 67.6978C60.5566 68.0998 59.8055 68.3008 59.3188 68.3008C58.9803 68.2796 58.4831 67.7295 57.8271 66.6504C57.6156 66.5446 57.4674 66.4917 57.3828 66.4917C57.002 66.8514 56.4412 67.6343 55.7007 68.8403C53.4155 71.1466 50.5591 72.2998 47.1313 72.2998H46.814C44.4019 72.2998 42.3706 70.9456 40.7202 68.2373C39.9162 66.7773 38.2869 61.8791 35.8325 53.5425C35.1343 51.5112 34.7852 50.3369 34.7852 50.0195C34.7852 49.3001 35.6632 48.7712 37.4194 48.4326C39.0487 47.8402 40.1066 47.5439 40.5933 47.5439C41.228 47.5439 41.9051 49.0251 42.6245 51.9873C44.7192 58.7793 46.1157 62.8418 46.814 64.1748C47.745 65.3809 48.8241 65.9839 50.0513 65.9839H50.3687C52.1248 65.9839 53.606 65.1481 54.812 63.4766C55.214 62.736 55.415 62.0166 55.415 61.3184V60.7153C55.415 59.2765 54.1349 54.7062 51.5747 47.0044L51.0352 45.0366C51.0352 44.3172 51.7651 43.7988 53.2251 43.4814L54.4946 42.7832C54.2407 42.5293 54.1138 42.3071 54.1138 42.1167V41.958C54.1138 41.7464 54.2407 41.4925 54.4946 41.1963V0.72998C54.4946 0.666504 54.6004 0.571289 54.812 0.444336ZM53.6694 46.1157C53.6694 46.8351 54.1243 47.2583 55.0342 47.3853C55.7747 47.216 56.145 46.7611 56.145 46.0205C55.9546 45.3223 55.6795 44.9731 55.3198 44.9731V45.354C55.3198 45.4386 55.2246 45.5339 55.0342 45.6396H54.812C54.7274 45.6396 54.6216 45.5444 54.4946 45.354V44.9731H54.4312C53.9233 45.2482 53.6694 45.6291 53.6694 46.1157ZM83.6621 0.444336H83.916C84.0007 0.444336 84.1064 0.55013 84.2334 0.761719V35.4834H84.3286C84.3286 35.166 84.6883 34.6899 85.4077 34.0552C85.577 33.3993 85.9155 33.0713 86.4233 33.0713H86.4868C87.0581 33.0713 87.3966 33.431 87.5024 34.1504C87.3332 34.764 87.0264 35.0708 86.582 35.0708H86.3281C86.1377 35.0708 85.9155 34.9544 85.6616 34.7217C84.8364 35.6527 84.4238 36.626 84.4238 37.6416V37.8003C84.7412 38.1388 84.8999 38.4245 84.8999 38.6572V38.9111C84.8999 39.2708 84.6777 39.5459 84.2334 39.7363V40.4028C85.7568 40.4028 87.7669 41.2915 90.2637 43.0688C92.1891 44.9943 93.5221 46.9409 94.2627 48.9087C95.1937 51.7863 95.6592 54.1455 95.6592 55.9863C95.6169 56.346 95.5957 56.7375 95.5957 57.1606C95.5957 57.2876 95.6169 57.404 95.6592 57.5098C95.6592 59.4987 94.9927 61.8579 93.6597 64.5874C91.2899 68.3114 87.7881 70.1733 83.1543 70.1733C81.25 70.1733 79.1976 69.5068 76.9971 68.1738C76.8913 68.1104 76.7537 68.0786 76.5845 68.0786C76.3094 68.396 76.1719 68.597 76.1719 68.6816C76.1719 68.724 76.193 68.7451 76.2354 68.7451L76.1719 69.3481V69.4116L78.2666 81.5039C78.2666 82.5407 77.1346 83.0591 74.8706 83.0591C73.6011 83.2918 72.6489 83.4082 72.0142 83.4082H71.9507C71.1255 83.4082 70.6494 82.8263 70.5225 81.6626L65.0635 44.4019C65.0635 43.5132 65.9839 43.016 67.8247 42.9102C68.0786 42.9102 69.1895 42.7726 71.1572 42.4976C71.792 42.4976 72.321 43.1323 72.7441 44.4019L73.1567 44.4971C73.4953 44.4971 74.0771 44.021 74.9023 43.0688C76.8913 41.4608 78.6686 40.6567 80.2344 40.6567C80.2344 40.4875 81.0384 40.3711 82.6465 40.3076H83.3447V39.6411C83.0485 39.366 82.9004 39.1227 82.9004 38.9111V38.7207C82.9004 38.488 83.0485 38.2129 83.3447 37.8955V0.761719C83.3447 0.677083 83.4505 0.571289 83.6621 0.444336ZM82.4243 43.3228C82.4243 44.1268 82.9215 44.6029 83.916 44.751C84.7412 44.5605 85.1538 44.0527 85.1538 43.2275C84.9422 42.4658 84.6354 42.085 84.2334 42.085V42.4976C84.2334 42.5822 84.1276 42.688 83.916 42.8149H83.6621C83.5775 42.8149 83.4717 42.7091 83.3447 42.4976V42.085H83.2495C82.6994 42.3812 82.4243 42.7938 82.4243 43.3228ZM74.0771 54.6533C74.0771 58.3138 75.1562 61.2126 77.3145 63.3496C78.7109 64.2383 79.8218 64.6826 80.647 64.6826C83.9054 64.6826 86.0531 63.4554 87.0898 61.001C87.5765 60.0277 87.8198 58.6629 87.8198 56.9067C87.714 51.9132 86.2223 48.6336 83.3447 47.0679C82.4772 46.687 81.578 46.4966 80.647 46.4966C77.3462 46.4966 75.262 48.1364 74.3945 51.416C74.1829 52.2412 74.0771 53.3203 74.0771 54.6533ZM111.75 0.349121H112.004C112.089 0.349121 112.205 0.465495 112.354 0.698242V34.4043C112.777 34.0869 113.179 33.5791 113.56 32.8809C113.75 32.7116 113.94 32.627 114.131 32.627H114.321C114.935 32.7116 115.242 33.0184 115.242 33.5474V33.9917C115.009 34.436 114.734 34.6582 114.417 34.6582H114.131C113.94 34.6582 113.687 34.5418 113.369 34.3091C112.692 35.1978 112.354 35.9172 112.354 36.4673V37.6733C112.586 37.9061 112.703 38.1283 112.703 38.3398V38.5938C112.703 38.8053 112.586 39.0381 112.354 39.292V39.895C114.279 39.895 116.501 40.6673 119.019 42.2119C121.283 44.1162 122.859 46.0205 123.748 47.9248C124.277 48.6442 124.816 50.1571 125.366 52.4634V52.6538C125.366 53.479 123.769 54.1878 120.574 54.7803C111.962 57.0654 107.17 58.3773 106.196 58.7158C105.9 59.0332 105.752 59.3823 105.752 59.7632V60.0171C106.387 61.7944 107.381 63.0745 108.735 63.8574C109.645 64.3229 110.396 64.5557 110.989 64.5557H111.56C114.924 64.5557 117.379 63.1592 118.923 60.3662C119.431 59.0544 120.267 58.3984 121.431 58.3984C122.679 57.9964 123.79 57.7108 124.763 57.5415C125.504 57.5415 125.874 57.9118 125.874 58.6523C125.874 60.3451 125.133 62.3975 123.652 64.8096C121.896 67.1794 119.41 68.8298 116.194 69.7607C114.459 70.3955 112.544 70.7129 110.449 70.7129C108.27 70.5013 106.588 70.131 105.403 69.6021C102.25 68.1421 99.9438 65.8887 98.4839 62.8418C97.172 60.3451 96.5161 57.5415 96.5161 54.4312V54.1772C96.5161 54.0503 96.4844 53.9445 96.4209 53.8599C96.6748 51.0034 97.5635 48.4326 99.0869 46.1475C100.949 43.4391 103.625 41.556 107.117 40.498C108.725 40.0326 110.153 39.7998 111.401 39.7998V39.4507C111.021 39.4507 110.767 39.165 110.64 38.5938V38.4351C110.767 37.8003 111.021 37.4829 111.401 37.4829V0.698242C111.401 0.613607 111.518 0.497233 111.75 0.349121ZM110.449 43.1323C110.449 43.9575 110.968 44.4442 112.004 44.5923C112.851 44.423 113.274 43.9152 113.274 43.0688C113.062 42.2648 112.756 41.8628 112.354 41.8628V42.2754C112.354 42.3812 112.237 42.4976 112.004 42.6245H111.75C111.666 42.6245 111.549 42.5081 111.401 42.2754V41.8628H111.306C110.735 42.1802 110.449 42.6034 110.449 43.1323ZM103.879 52.2095C103.879 52.8231 104.133 53.278 104.641 53.5742H105.054C105.773 53.5742 109.285 52.6644 115.591 50.8447C115.887 50.5485 116.035 50.2946 116.035 50.083V49.8291C116.035 48.9616 115.146 47.9036 113.369 46.6553C112.523 46.1898 111.666 45.957 110.798 45.957C108.048 45.957 105.942 47.1631 104.482 49.5752C104.08 50.612 103.879 51.4901 103.879 52.2095ZM131.777 0.222168H132.031C132.137 0.222168 132.253 0.338542 132.38 0.571289V34.0869H132.476C132.476 33.7484 132.846 33.2617 133.586 32.627C133.756 31.9287 134.105 31.5796 134.634 31.5796H134.729C135.3 31.5796 135.639 31.9499 135.745 32.6904C135.575 33.3252 135.258 33.6426 134.792 33.6426H134.539C134.327 33.6426 134.094 33.5262 133.84 33.2935C132.994 34.2456 132.571 35.2507 132.571 36.3086V36.499C132.909 36.8376 133.079 37.1232 133.079 37.356V37.6099C133.079 37.9907 132.846 38.2764 132.38 38.4668V38.6572C134.75 38.8053 135.935 39.091 135.935 39.5142C136.041 39.8739 136.094 40.1278 136.094 40.2759V41.4819C136.094 42.159 136.263 42.5928 136.602 42.7832C136.919 42.762 137.469 42.36 138.252 41.5771C140.347 39.9056 142.463 39.0698 144.6 39.0698H145.298C146.737 39.0698 147.456 39.6729 147.456 40.8789C147.244 44.5605 146.927 46.4014 146.504 46.4014C146.292 46.5072 146.06 46.5601 145.806 46.5601H145.393C145.139 46.5601 144.504 46.5072 143.489 46.4014C140.103 46.4014 137.839 47.6074 136.697 50.0195C135.956 50.7178 135.406 53.0664 135.046 57.0654C134.56 64.3018 134.105 67.9199 133.682 67.9199C133.258 68.0892 132.909 68.1738 132.634 68.1738C128.403 68.0257 126.287 67.5708 126.287 66.8091L126.191 66.2695C127.694 48.7923 128.529 39.7892 128.699 39.2603C128.995 38.7313 129.535 38.4668 130.317 38.4668C130.804 38.5303 131.174 38.562 131.428 38.562V38.3716C131.153 38.0754 131.016 37.8215 131.016 37.6099V37.4512C131.016 37.1973 131.153 36.901 131.428 36.5625V0.571289C131.428 0.486654 131.545 0.37028 131.777 0.222168ZM130.508 42.1802C130.508 43.0054 131.016 43.492 132.031 43.6401C132.899 43.4497 133.333 42.9313 133.333 42.085C133.121 41.2809 132.804 40.8789 132.38 40.8789V41.3232C132.38 41.4079 132.264 41.5243 132.031 41.6724H131.777C131.693 41.6724 131.576 41.556 131.428 41.3232V40.8789H131.365C130.793 41.1963 130.508 41.63 130.508 42.1802ZM178.528 0H178.782C178.866 0 178.983 0.116374 179.131 0.349121V25.3589C179.364 25.6128 179.48 25.8455 179.48 26.0571V26.311C179.48 26.5226 179.364 26.7554 179.131 27.0093V27.6123H179.48C186.907 27.6123 191.9 30.1937 194.46 35.3564C195.095 37.0068 195.413 38.2129 195.413 38.9746V39.0698C195.413 40.1066 194.841 40.625 193.699 40.625H188.525C187.362 40.5404 186.78 40.0749 186.78 39.2285C186.082 37.3242 185.225 36.1499 184.209 35.7056C183.045 34.9015 181.353 34.4995 179.131 34.4995H178.433C175.64 34.4995 173.799 35.6421 172.91 37.9272C172.804 38.4562 172.751 38.8371 172.751 39.0698V39.5776C172.751 41.4185 174.931 42.8255 179.29 43.7988C179.797 44.0316 182.358 44.6875 186.97 45.7666C189.298 46.4014 191.244 47.3853 192.81 48.7183C195.518 50.8341 196.873 53.6165 196.873 57.0654C196.873 62.0801 194.46 65.7829 189.636 68.1738C186.991 69.4434 183.743 70.0781 179.893 70.0781C176.655 70.0781 173.503 69.4222 170.435 68.1104C168.932 67.4756 167.261 66.2061 165.42 64.3018C163.939 62.2917 163.05 59.9959 162.754 57.4146V56.9067C162.754 56.1873 163.325 55.7853 164.468 55.7007H169.832C170.805 55.7007 171.376 56.4201 171.545 57.8589C172.286 59.869 173.46 61.276 175.068 62.0801C176.888 62.8841 178.697 63.2861 180.496 63.2861C182.887 63.2861 185.045 62.5879 186.97 61.1914C187.838 59.9642 188.271 58.9591 188.271 58.1763C188.271 55.4256 185.394 53.479 179.639 52.3364C175.238 51.2785 171.789 50.1253 169.292 48.877C165.801 46.7399 164.055 43.6401 164.055 39.5776C164.055 36.2134 165.632 33.2511 168.784 30.6909C170.413 29.3791 172.54 28.4904 175.164 28.0249C175.164 27.9614 176.137 27.8239 178.083 27.6123C178.083 27.6546 178.115 27.6758 178.179 27.6758V27.168C177.734 27.168 177.47 26.8294 177.385 26.1523C177.512 25.5599 177.713 25.2637 177.988 25.2637C177.988 24.0576 177.533 22.9679 176.624 21.9946C176.539 22.2274 176.338 22.3438 176.021 22.3438H175.513C175.047 22.0898 174.814 21.7725 174.814 21.3916V21.2329C174.814 20.7463 175.132 20.4289 175.767 20.2808H175.925C176.454 20.2808 176.803 20.651 176.973 21.3916C177.29 21.3916 177.66 21.8783 178.083 22.8516H178.179V0.349121C178.179 0.264486 178.295 0.148112 178.528 0ZM177.227 30.8813C177.227 31.7065 177.745 32.1932 178.782 32.3413C179.649 32.1509 180.083 31.6325 180.083 30.7861C179.85 29.9821 179.533 29.5801 179.131 29.5801V30.0244C179.131 30.109 179.014 30.2254 178.782 30.3735H178.528C178.443 30.3735 178.327 30.2572 178.179 30.0244V29.5801H178.083C177.512 29.8975 177.227 30.3312 177.227 30.8813ZM217.153 0.380859H217.375C217.46 0.380859 217.576 0.486654 217.725 0.698242V39.0063C217.936 39.2391 218.042 39.4613 218.042 39.6729V39.9268C218.042 40.1172 217.936 40.3288 217.725 40.5615V40.6567C219.375 41.1222 220.719 42.2437 221.755 44.021C222.348 45.9041 223.586 51.7546 225.469 61.5723C226.336 64.1325 226.77 65.5078 226.77 65.6982C226.77 66.333 225.374 66.8197 222.581 67.1582C222.052 67.391 221.396 67.5073 220.613 67.5073C220.19 67.5073 219.555 67.0947 218.708 66.2695H218.137C215.027 69.2318 211.313 70.7129 206.997 70.7129H206.521C204.701 70.7129 202.945 69.9723 201.252 68.4912C199.666 66.4811 198.872 64.4816 198.872 62.4927C198.872 58.2609 201.781 55.3198 207.6 53.6694C209.737 52.95 211.631 52.2306 213.281 51.5112C214.424 50.7072 214.995 49.9455 214.995 49.2261C214.995 47.491 214.255 46.3062 212.773 45.6714C212.287 45.5656 211.927 45.5127 211.694 45.5127H210.964C209.25 45.5127 207.716 46.0311 206.362 47.0679C205.685 47.5968 205.188 48.7288 204.871 50.4639C204.871 50.9294 202.755 51.4795 198.523 52.1143C197.973 52.1143 197.645 51.7228 197.539 50.9399C197.539 47.0044 199.655 44.0739 203.887 42.1484C207.251 40.7096 210.573 39.9902 213.853 39.9902C214.212 39.9902 214.974 40.0431 216.138 40.1489L216.074 39.9902V39.7363C216.18 39.1862 216.37 38.9111 216.646 38.9111C216.646 37.7897 216.201 36.7529 215.312 35.8008C215.101 36.0124 214.889 36.1182 214.678 36.1182H214.424C214.001 36.1182 213.694 35.8219 213.503 35.2295C213.63 34.5101 213.969 34.1504 214.519 34.1504H214.583C215.048 34.1504 215.429 34.5312 215.725 35.293C216.212 35.6104 216.55 36.0547 216.741 36.626H216.804V0.698242C216.804 0.613607 216.921 0.507812 217.153 0.380859ZM215.916 44.2749C215.916 45.0789 216.402 45.5444 217.375 45.6714C218.201 45.5021 218.613 45.0155 218.613 44.2114C218.402 43.4285 218.105 43.0371 217.725 43.0371V43.4497C217.725 43.5343 217.608 43.6507 217.375 43.7988H217.153C217.048 43.7988 216.931 43.6825 216.804 43.4497V43.0371H216.741C216.191 43.3545 215.916 43.7671 215.916 44.2749ZM206.521 61.001V61.4771C206.775 63.7834 207.759 64.9365 209.473 64.9365C209.473 65 209.727 65.0317 210.234 65.0317H211.06C212.689 65.0317 214.307 64.2912 215.916 62.8101C216.614 61.604 216.963 60.5037 216.963 59.5093C216.963 57.7319 216.688 56.3883 216.138 55.4785C215.926 55.3727 215.736 55.3198 215.566 55.3198C212.012 56.5682 209.547 57.5838 208.171 58.3667C207.071 59.3823 206.521 60.2604 206.521 61.001ZM230.737 0.539551H230.991C231.076 0.539551 231.192 0.655924 231.34 0.888672V23.8672C231.764 23.5498 232.166 23.042 232.546 22.3438C232.758 22.1533 232.959 22.0581 233.149 22.0581H233.308C233.943 22.1639 234.26 22.4813 234.26 23.0103V23.4546C234.028 23.9201 233.742 24.1528 233.403 24.1528H233.149C232.938 24.1528 232.684 24.0365 232.388 23.8037C231.689 24.6712 231.34 25.3906 231.34 25.9619V27.168C231.573 27.4007 231.689 27.6229 231.689 27.8345V28.0884C231.689 28.3 231.573 28.5327 231.34 28.7866V29.6436H231.436C233.784 29.6436 234.958 29.908 234.958 30.437C235.064 30.8602 235.117 31.2622 235.117 31.6431L235.244 68.4595C235.413 72.522 234.863 74.2993 233.594 73.7915V73.8867L232.546 73.7915H229.626C227.955 73.7915 227.119 73.3366 227.119 72.4268V31.1987C227.119 30.1619 227.891 29.6436 229.436 29.6436H230.388V28.9771C230.007 28.9771 229.753 28.6808 229.626 28.0884V27.9297C229.753 27.2949 230.007 26.9775 230.388 26.9775V0.888672C230.388 0.804036 230.505 0.687663 230.737 0.539551ZM229.436 32.6587C229.436 33.4839 229.954 33.9705 230.991 34.1187C231.859 33.9494 232.292 33.4416 232.292 32.5952C232.06 31.7912 231.742 31.3892 231.34 31.3892V31.8018C231.34 31.8864 231.224 32.0028 230.991 32.1509H230.737C230.653 32.1509 230.536 32.0345 230.388 31.8018V31.3892H230.293C229.722 31.7065 229.436 32.1297 229.436 32.6587ZM251.97 0.349121H252.224C252.309 0.349121 252.425 0.465495 252.573 0.698242V34.4043C252.996 34.0869 253.398 33.5791 253.779 32.8809C253.97 32.7116 254.16 32.627 254.351 32.627H254.541C255.155 32.7116 255.461 33.0184 255.461 33.5474V33.9917C255.229 34.436 254.954 34.6582 254.636 34.6582H254.351C254.16 34.6582 253.906 34.5418 253.589 34.3091C252.912 35.1978 252.573 35.9172 252.573 36.4673V37.6733C252.806 37.9061 252.922 38.1283 252.922 38.3398V38.5938C252.922 38.8053 252.806 39.0381 252.573 39.292V39.895C254.499 39.895 256.72 40.6673 259.238 42.2119C261.502 44.1162 263.079 46.0205 263.967 47.9248C264.496 48.6442 265.036 50.1571 265.586 52.4634V52.6538C265.586 53.479 263.988 54.1878 260.793 54.7803C252.182 57.0654 247.389 58.3773 246.416 58.7158C246.12 59.0332 245.972 59.3823 245.972 59.7632V60.0171C246.606 61.7944 247.601 63.0745 248.955 63.8574C249.865 64.3229 250.616 64.5557 251.208 64.5557H251.78C255.144 64.5557 257.598 63.1592 259.143 60.3662C259.651 59.0544 260.487 58.3984 261.65 58.3984C262.899 57.9964 264.01 57.7108 264.983 57.5415C265.723 57.5415 266.094 57.9118 266.094 58.6523C266.094 60.3451 265.353 62.3975 263.872 64.8096C262.116 67.1794 259.63 68.8298 256.414 69.7607C254.679 70.3955 252.764 70.7129 250.669 70.7129C248.49 70.5013 246.807 70.131 245.623 69.6021C242.47 68.1421 240.164 65.8887 238.704 62.8418C237.392 60.3451 236.736 57.5415 236.736 54.4312V54.1772C236.736 54.0503 236.704 53.9445 236.641 53.8599C236.895 51.0034 237.783 48.4326 239.307 46.1475C241.169 43.4391 243.845 41.556 247.336 40.498C248.944 40.0326 250.373 39.7998 251.621 39.7998V39.4507C251.24 39.4507 250.986 39.165 250.859 38.5938V38.4351C250.986 37.8003 251.24 37.4829 251.621 37.4829V0.698242C251.621 0.613607 251.737 0.497233 251.97 0.349121ZM250.669 43.1323C250.669 43.9575 251.187 44.4442 252.224 44.5923C253.07 44.423 253.494 43.9152 253.494 43.0688C253.282 42.2648 252.975 41.8628 252.573 41.8628V42.2754C252.573 42.3812 252.457 42.4976 252.224 42.6245H251.97C251.886 42.6245 251.769 42.5081 251.621 42.2754V41.8628H251.526C250.955 42.1802 250.669 42.6034 250.669 43.1323ZM244.099 52.2095C244.099 52.8231 244.353 53.278 244.861 53.5742H245.273C245.993 53.5742 249.505 52.6644 255.811 50.8447C256.107 50.5485 256.255 50.2946 256.255 50.083V49.8291C256.255 48.9616 255.366 47.9036 253.589 46.6553C252.743 46.1898 251.886 45.957 251.018 45.957C248.267 45.957 246.162 47.1631 244.702 49.5752C244.3 50.612 244.099 51.4901 244.099 52.2095Z" fill="#46A358"/>
</svg>
